<?xml version="1.0" encoding="utf-8"?>
<!-- Generator: Adobe Illustrator 21.0.0, SVG Export Plug-In . SVG Version: 6.00 Build 0)  -->
<svg version="1.1" id="图层_1" xmlns="http://www.w3.org/2000/svg" xmlns:xlink="http://www.w3.org/1999/xlink" x="0px" y="0px"
	 viewBox="0 0 1366 768" style="enable-background:new 0 0 1366 768;" xml:space="preserve">
<style type="text/css">
	.st0{fill:#67C23A;}
	.st1{fill:#3FA2D0;}
</style>
<g>
	<path class="st0" d="M235,286c0,0,21.7-83.8,101-77c82,7,132,134,46,245c0,0,4-82-43-125C304.6,297.5,278,288,235,286z"/>
	<path class="st1" d="M365,402c9.2,39,6,66,6,66s-41,35-119,31c-57.4-2.9-108.5-48.6-112-101c-3-45,32.1-105.3,100-101
		C303,301,352,347,365,402z"/>
	<path class="st0" d="M217,505c0,0,190,34,253-148c0,0,18-40,36-9S460,537,217,505z"/>
	<g>
		<path class="st1" d="M651.9,403.2h-47L591.6,453h-51.5l36.5-136.4h103.6l-9.6,35.7h-52.1l-4.3,15.9h47L651.9,403.2z"/>
		<path class="st1" d="M658.7,452.8l25.5-95h45.7l-25.5,95H658.7z M687.6,345.1l7.7-28.7h45.7l-7.7,28.7H687.6z"/>
		<path class="st1" d="M796,367.9l6.3-4.7c4.2-3.3,7.5-5.5,9.9-6.4c2.4-0.9,5-1.4,7.8-1.4c2,0,3.9,0.2,5.5,0.7
			c1.7,0.5,3.2,1.2,4.5,2.1l-9.5,35.6c-3-1-5.8-1.7-8.5-2.3c-2.6-0.5-5-0.8-7.2-0.8c-4.6,0-8.4,1.5-11.3,4.5c-2.9,3-5.2,7.8-7,14.4
			l-11.5,43h-45.7l25.5-95h43.9L796,367.9z"/>
		<path class="st1" d="M932,412.9h-63.6l-0.7,2.7c-1.5,5.5-1.5,9.7-0.2,12.5c1.4,2.9,4.1,4.3,8.2,4.3c3.5,0,6.4-0.9,8.7-2.6
			c2.3-1.8,4.3-4.7,6-8.7h37.9c-2.9,10.9-9.5,19.3-19.6,25.2c-10.2,5.9-23.2,8.9-39.1,8.9c-17.3,0-29.8-4.5-37.4-13.4
			c-7.6-8.9-9.3-21.1-5.2-36.4c4.1-15.3,12.4-27.5,24.7-36.4c12.4-8.9,27.2-13.4,44.5-13.4c16.5,0,28,4.3,34.6,13
			c6.6,8.7,7.8,21,3.5,37c-0.4,1.4-1.1,3.6-2.2,6.7C932.2,412.5,932.1,412.7,932,412.9z M873.3,393.2H897c0.1-0.3,0.2-0.8,0.5-1.4
			c0.2-0.6,0.4-1,0.4-1.3c1.1-4.1,1-7.3-0.4-9.5c-1.4-2.2-3.9-3.3-7.7-3.3c-3.8,0-7.2,1.3-10,3.8c-2.9,2.6-4.9,6.1-6.1,10.6
			L873.3,393.2z"/>
		<path class="st1" d="M1041.5,316.3l-7.2,26.7c-0.8-0.1-1.6-0.2-2.5-0.3c-0.9-0.1-2.1-0.1-3.7-0.1c-3.9,0-7,0.8-9.2,2.3
			c-2.2,1.5-3.7,4.1-4.7,7.6l-1.9,6.9h17.1l-7.5,27.8H1005l-17.6,65.5h-43.7l17.6-65.5h-11.1l7.5-27.8h10.4l3.2-11.9
			c2.9-11,8.4-19.3,16.5-25c8.1-5.7,18.4-8.5,30.9-8.5c3.2,0,6.7,0.2,10.5,0.6C1032.8,315,1037,315.5,1041.5,316.3z"/>
		<path class="st1" d="M1023.7,452.8l36.5-136.4h45.7l-36.5,136.4H1023.7z"/>
		<path class="st1" d="M1107.9,357.8h48.4l-1.3,53l26.9-53h44.1l-78.8,131h-48.4l21.5-33.7L1107.9,357.8z"/>
	</g>
</g>
</svg>
